<?xml version="1.0" encoding="UTF-8"?>
<svg id="Layer_1" data-name="Layer 1" xmlns="http://www.w3.org/2000/svg" xmlns:xlink="http://www.w3.org/1999/xlink" viewBox="0 0 799.57 523.97">
  <defs>
    <style>
      .cls-1 {
        fill: #02027a;
      }

      .cls-2 {
        fill: url(#linear-gradient-6);
      }

      .cls-2, .cls-3, .cls-4, .cls-5, .cls-6, .cls-7, .cls-8, .cls-9, .cls-10, .cls-11, .cls-12, .cls-13, .cls-14, .cls-15, .cls-16, .cls-17 {
        stroke: #000;
      }

      .cls-3 {
        fill: url(#linear-gradient-4);
      }

      .cls-4 {
        stroke-width: .95px;
      }

      .cls-4, .cls-15, .cls-17 {
        fill: none;
      }

      .cls-18 {
        fill: #f59300;
      }

      .cls-5 {
        fill: url(#linear-gradient-3);
      }

      .cls-6, .cls-19 {
        fill: #ccc;
      }

      .cls-20 {
        fill: #010278;
      }

      .cls-21 {
        fill: #fa9602;
      }

      .cls-22 {
        fill: #030282;
      }

      .cls-7 {
        fill: url(#linear-gradient-5);
      }

      .cls-23 {
        fill: #e6e6e6;
      }

      .cls-24 {
        fill: gray;
      }

      .cls-8 {
        fill: red;
      }

      .cls-9 {
        fill: #803300;
      }

      .cls-10 {
        fill: url(#linear-gradient-2);
      }

      .cls-25 {
        fill: #a00;
      }

      .cls-26, .cls-16 {
        fill: #999;
      }

      .cls-27 {
        fill: #010571;
      }

      .cls-28 {
        fill: #f99501;
      }

      .cls-12 {
        fill: #e9c6af;
      }

      .cls-13 {
        fill: #fff;
      }

      .cls-14 {
        fill: url(#linear-gradient);
      }

      .cls-29 {
        fill: #666;
      }

      .cls-17 {
        stroke-width: 1.01px;
      }
    </style>
    <linearGradient id="linear-gradient" x1="156.65" y1="692.44" x2="191.5" y2="619.19" gradientTransform="translate(607.56 811.55) rotate(-180)" gradientUnits="userSpaceOnUse">
      <stop offset="0" stop-color="#999"/>
      <stop offset=".54" stop-color="#ccc" stop-opacity=".5"/>
      <stop offset="1" stop-color="#999"/>
    </linearGradient>
    <linearGradient id="linear-gradient-2" x1="72.46" y1="633.07" x2="108.02" y2="582.58" gradientTransform="translate(607.56 811.55) rotate(-180)" gradientUnits="userSpaceOnUse">
      <stop offset="0" stop-color="#d45500"/>
      <stop offset=".5" stop-color="#fff"/>
      <stop offset="1" stop-color="#f60"/>
    </linearGradient>
    <linearGradient id="linear-gradient-3" x1="-155.9" y1="444.67" x2="-62.74" y2="423.33" gradientTransform="translate(607.56 811.55) rotate(-180)" gradientUnits="userSpaceOnUse">
      <stop offset="0" stop-color="#b3b3b3"/>
      <stop offset="1" stop-color="#fff"/>
    </linearGradient>
    <linearGradient id="linear-gradient-4" x1="3.86" y1="453.61" x2="17.37" y2="460.01" gradientTransform="translate(607.56 811.55) rotate(-180)" gradientUnits="userSpaceOnUse">
      <stop offset="0" stop-color="maroon"/>
      <stop offset="1" stop-color="red"/>
    </linearGradient>
    <linearGradient id="linear-gradient-5" x1="-127.92" y1="464.67" x2="-174.86" y2="468.93" gradientTransform="translate(540.04 806.38) rotate(-180)" gradientUnits="userSpaceOnUse">
      <stop offset="0" stop-color="#fff"/>
      <stop offset="1" stop-color="#ccc"/>
    </linearGradient>
    <linearGradient id="linear-gradient-6" x1="59.23" y1="631.11" x2="92.65" y2="569.95" gradientTransform="translate(607.56 811.55) rotate(-180)" gradientUnits="userSpaceOnUse">
      <stop offset="0" stop-color="#d45500"/>
      <stop offset="1" stop-color="#d45500" stop-opacity="0"/>
    </linearGradient>
  </defs>
  <path class="cls-28" d="m180.24,269.86c-1.3-3.47-2.07-6.1-3.25-8.53-7.88-16.2-17.08-31.54-29.95-44.38-4.01-4-7.95-8.11-12.21-11.83-18.69-16.3-40.85-23.01-65.11-20.38-17.19,1.86-31.92,10.33-44.08,23-9.89,10.31-17.91,21.77-23.53,34.91-.3.71-.92,1.28-2.1,2.88,2.8-14,8.45-25.33,15.76-35.99,4.82-7.03,8.71-14.78,14.08-21.34,10.85-13.27,21.57-26.76,35.12-37.54,8.45-6.72,16.5-14.11,25.62-19.77,16.57-10.3,33.77-18.99,53.45-22.97,15.08-3.05,30.02-4.9,45.19-4.01,22.16,1.29,43.74,5.57,63.1,17.21,12.78,7.68,25.85,15.12,37.64,24.16,13.25,10.16,24.65,22.54,35.02,35.75,11.84,15.08,22.56,30.86,31.22,47.99.71,1.4,1.43,2.82,1.94,4.3.56,1.62.87,3.33,1.44,5.6-.87-.53-1.35-.65-1.53-.95-5.38-8.72-9.61-18.46-16.32-26-14.27-16.02-31.6-26.99-54.23-27.85-24.07-.91-44.43,7.2-62.3,22.79-12.32,10.74-23.1,22.66-30.72,37.29-4.31,8.27-9.03,16.32-14.24,25.68Z"/>
  <path class="cls-20" d="m346.09,195.9c-2.89-4.06-5.97-8-8.62-12.21-10.55-16.81-23.75-31.46-38.23-44.77-20.74-19.05-44.22-34.03-71.43-42.41-28.95-8.92-58.06-9.9-87.49-2.05-20.52,5.48-39.35,14.47-56.58,26.61-13.97,9.84-27.15,20.82-38.03,34.17-10.18,12.49-20.15,25.15-30.66,38.29,2.31-5.51,4.35-10.63,6.61-15.66,1.06-2.35,2.72-4.43,3.8-6.77,9.52-20.55,22.38-38.98,37.06-56.02,11.96-13.89,25.78-26,41.4-35.79,31.08-19.47,64.89-26.58,101.03-20.41,19.33,3.3,37.04,11.49,53.3,22.38,18.36,12.3,34.77,26.88,47.94,44.75,7.41,10.05,14.64,20.29,21.18,30.92,6.08,9.88,11.22,20.34,16.61,30.63,1.28,2.44,1.94,5.2,2.89,7.81-.26.18-.51.36-.77.54Z"/>
  <path class="cls-1" d="m152.47,402.78h-27.38c-.12-.84-.42-1.64-.22-1.8,5.25-4.14,3.89-9.96,3.95-15.38.08-7.52-.06-15.05.12-22.57.08-3.34-1.19-4.87-4.52-4.87-9.8.02-19.61.02-29.41-.05-2.96-.02-3.99,1.43-3.97,4.22.07,10.5-.14,21,.2,31.48.09,2.72,1.8,5.39,2.99,8.72h-26.42c4.65-15.49,1.7-31.48,2.2-47.28.51-16.08.26-32.19,0-48.28-.07-4.13-1.43-8.23-2.26-12.7h26.54c-5.74,11.26-2.17,22.71-3.22,33.8-.36,3.81,1.01,5.37,5,5.27,8.92-.22,17.86-.27,26.78-.01,4.88.14,6.4-1.69,6.12-6.48-.38-6.62-.05-13.29-.08-19.94-.01-3.43.38-6.83-3.08-9.41-2-1.49-1.5-3.66,1.47-3.7,8.34-.12,16.69-.04,24.96-.04.25,1.18.62,1.93.42,2.14-4.89,5.18-3.87,11.59-3.86,17.82.02,25.72-.14,51.43.15,77.15.04,3.81,2.21,7.59,3.55,11.9Z"/>
  <path class="cls-1" d="m218.98,325.09v-35.42c2.78,5.27,7.57,4.2,11.95,4.2,18.21,0,36.43-.05,54.64.02,4.08.02,8.14.39,10.56-4.43v36.86c-4.28-8.5-11.01-5.34-16.61-5.45-12.69-.25-10.76-1.53-10.84,10.76-.12,16.27-.18,32.55.03,48.82.1,7.3-1.94,14.93,3.52,21.99h-27.33c.95-4.61,2.49-8.75,2.54-12.91.26-21,.03-42,.21-63,.04-4.25-1.12-6.15-5.6-5.85-4.18.28-8.4.11-12.61.05-3.99-.06-8.14-.57-10.46,4.35Z"/>
  <path class="cls-1" d="m197.54,402.64h-25.45c5.01-13.27,2.03-26.89,2.45-40.26.52-16.44.26-32.9.03-49.35-.08-6.08,2.15-12.64-4.45-18.66h28.83c-5.76,11.37-2.71,23.14-3,34.6-.5,19.41-.24,38.85-.06,58.28.05,4.85,1.02,9.69,1.66,15.4Z"/>
  <path class="cls-21" d="m393.63,522.94H.54c-.09-.7-.19-1.41-.28-2.11,2.28-.35,4.56-1,6.83-1.01,31.53-.11,63.06-.15,94.59-.17,70.94-.05,141.88-.09,212.82-.09,24.17,0,48.34.09,72.52.25,2.31.02,4.61.87,6.92,1.33-.1.6-.2,1.2-.3,1.8Z"/>
  <path class="cls-18" d="m782.86,522.93h-371.55c-.12-.58-.23-1.17-.35-1.75,2.26-.49,4.51-1.39,6.77-1.4,26.79-.11,53.59-.09,80.38-.1,92.64-.03,185.28-.06,277.93-.04,2.36,0,4.73.55,7.09.84-.09.82-.18,1.64-.27,2.46Z"/>
  <path class="cls-27" d="m427.3,102.24h16.1c-8.26,7.77-4.15,16.89-4.93,25.21-.09.99,1.96,2.19,3.04,3.28.09.09.34.05.51.04,5.33-.37,10.65-.74,15.98-1.11-.02-7.3.23-14.62-.28-21.89-.11-1.56-2.96-2.92-5.58-5.31h16.72c.34.36.67.73,1.01,1.09-7.42,1.99-6.09,7.54-6.12,12.42-.09,12.6-.01,25.21-.04,37.81,0,4.53-.71,9.33,5.1,12.05h-15.86c9.99-8.19,3.95-18.91,5.47-28.31.14-.86-1.99-2.11-3.13-3.11-.2-.17-.68-.01-1.03-.03-15.92-.68-15.99-.68-15.93,15.16.02,5.57-1.63,11.67,5.69,16.46h-17.52c7.21-4.73,5.47-10.95,5.53-16.64.11-11.03.03-22.05.03-33.08q0-7.95-4.76-14.03Z"/>
  <path class="cls-27" d="m733.83,360.72c.46,2.85,1.13,5.7,1.37,8.59.88,10.87-2.68,15.52-13.1,18.35-1.65.45-2.73,3-4.08,4.58,1.37,1.07,2.62,2.75,4.15,3.08,2.69.58,5.55.41,8.35.42,5.12.02,7.61,2.74,8.26,7.62.95,7.09-2.26,13.88-7.8,16.28-8.26,3.58-15.24,2.19-20.36-4.05-2.68-3.26-2.32-6.87,1.07-9.78,2.38-2.05,3.56-4.17,1.56-7.23-1.78-2.72-1.34-5.35,1.14-7.49,2.86-2.46,3.23-4.38.43-7.71-6.42-7.65-6.36-15.74-.86-24.09,2.58-3.91,6.09-5.51,10.77-4.76,3.41.54,6.89.7,10.31,1.22,1.39.21,2.71.93,4.06,1.42-1.21.89-2.41,1.8-3.64,2.67-.41.29-.89.48-1.62.87Zm-4.14,10.18c-.66-3.27-.87-6.67-2.13-9.6-.73-1.68-3.2-3.63-4.86-3.6-1.7.03-4.69,2.23-4.8,3.65-.47,6.44-.41,12.97.17,19.4.12,1.35,3.21,3.28,5.01,3.36,1.47.07,3.76-1.93,4.42-3.53,1.21-2.98,1.5-6.34,2.2-9.67Zm-5.66,31.14c-7.11,0-8.95,1.57-8.93,7.62.02,5.41,3.58,9.03,8.82,8.96,5.32-.07,10.05-4.73,10.14-9.99.1-5.22-1.99-6.6-10.03-6.59Z"/>
  <path class="cls-27" d="m542.78,333.79v27.44c.63.36,1.25.71,1.88,1.07,1.3-1.8,2.3-3.94,3.95-5.32,4.97-4.18,10.2-2.97,12.54,3.09,1.41,3.64,2.25,7.61,2.62,11.5.44,4.5.03,9.08.09,13.62.07,5.57-1.3,11.5,5.23,16.41h-16.5c7.17-4.82,5.46-10.99,5.54-16.67.08-5.42.1-10.84-.17-16.25-.18-3.55-.8-7.21-5.51-7.59-3.89-.31-9.51,3.69-9.62,7.36-.24,8.73-.27,17.48.17,26.2.11,2.19,2.34,4.27,3.9,6.93h-14.86c6.55-5.36,4.71-12.05,4.83-18.22.21-10.48.33-20.98-.04-31.45-.12-3.42-1.92-6.76-2.8-10.18-.26-1-.38-2.76.15-3.12,2.28-1.57,4.84-2.76,8.59-4.79Z"/>
  <path class="cls-27" d="m395,423.49V91.25c.23,0,.45,0,.68,0v332.23c-.23,0-.45,0-.68,0Z"/>
  <path class="cls-27" d="m449.73,283.76c6.06-8.25,6.19-32.1.16-41.82,2.98-1.56,5.9-3.08,9.38-4.91.4,2.78.66,4.59.93,6.41.61.56,1.22,1.12,1.83,1.68.87-1.67,1.37-3.72,2.66-4.94,6.05-5.75,13.51-3.53,15.45,4.56.56,2.35.7,4.85.75,7.28.12,5.07.01,10.15.09,15.22.08,5.6-1.31,11.56,5.08,16.58h-14.8c7.36-10.47,2.98-21.96,3.75-32.87.23-3.29-.42-7.33-5.28-7.68-4.22-.31-9.68,3.75-9.79,7.82-.22,8.56-.19,17.15.29,25.7.12,2.22,2.27,4.33,3.76,6.98h-14.27Z"/>
  <path class="cls-27" d="m462.68,350.59c-.42-1.46-.87-2.91-1.26-4.37-1.36-5.2-5.47-5.27-9.62-5.04-4.58.25-3.18,3.91-3.2,6.37-.11,13.99-.26,27.99.13,41.97.11,3.91,1.97,7.76,3.14,12.04h-14.38c7.53-5.08,4.46-12.62,4.65-19.13.33-11.71.17-23.44.01-35.15-.03-2.22,1.74-5.8-2.61-6.12-4.02-.29-8.32-.63-9.94,4.54-.56,1.77-1.09,3.54-1.63,5.31-.53-.06-1.06-.12-1.6-.17.38-4.15.67-8.3,1.26-12.42.08-.56,1.64-1.28,2.52-1.29,10.14-.08,20.29-.11,30.43.05,1.04.02,2.85,1.19,2.97,2.01.52,3.69.56,7.44.78,11.18-.54.07-1.09.14-1.63.21Z"/>
  <path class="cls-27" d="m575.62,401.51c4.34-13.98,4.21-27.45-.21-42.14,1.35-.83,3.76-2.32,6.72-4.15.6,2.55,1.03,4.43,1.75,7.51,2.04-1.96,3.2-3.69,4.83-4.51,2.81-1.43,6.3-3.71,8.76-3.01,2.45.7,5.22,4.41,5.68,7.17,1.35,8,1.74,16.17,2.25,24.29.32,5.08-1.04,10.51,5.65,14.86h-15.25c7.04-11.3,3.44-23.35,3.19-34.97-.11-5.38-4.99-7.25-9.58-4.29-3.88,2.51-7.06,5.58-6.5,11.02.39,3.8.15,7.68.07,11.53-.12,5.96-.6,12.01,5.22,16.7h-12.61Z"/>
  <path class="cls-27" d="m669.8,379.45c1.92-6.55,2.89-12.5,5.38-17.73,3.73-7.82,15.47-11.58,22.82-.59,6.01,9,6.44,18.41,3.79,27.95-1.26,4.54-4.76,8.92-8.29,12.27-4.67,4.43-13.77,2.62-17.21-3.72-3.06-5.64-4.43-12.21-6.49-18.2Zm5.69-1.03c.47.15.94.31,1.41.46,0,6.49.08,12.87,4.8,18.23,3.45,3.92,8.07,4.18,10.89-.25,1.46-2.28,2.44-5.08,2.87-7.76,1.44-9.04,2.07-18.16-2.07-26.72-2.93-6.07-9.07-6.58-12.05-.73-2.66,5.23-3.96,11.15-5.85,16.77Z"/>
  <path class="cls-27" d="m719.4,261.42c-.76-7.41,2.22-13.68,6.25-19.43,5.43-7.74,15.74-7.37,21.13.5,6.36,9.28,6.41,27.7.1,36.99-5.41,7.96-16.37,8.42-21.38.27-3.34-5.43-5.14-11.8-7.62-17.76.5-.19,1.01-.38,1.51-.57Zm27.33,2.19c-1.11-6.89-1.07-11.86-2.86-16.04-1.33-3.1-4.67-6.01-7.82-7.37-1.43-.62-5.8,2.16-6.73,4.31-4.79,11.05-4.59,22.48.04,33.53,2.17,5.19,8.41,6.03,11.19,1.31,3.12-5.29,4.6-11.55,6.18-15.74Z"/>
  <path class="cls-27" d="m647.41,379.74c-1.67,5.44-2.62,11.45-5.28,16.57-5.12,9.84-17.13,9.66-22.72.12-6.52-11.12-6.59-22.36-.69-33.78,2.73-5.27,6.76-8.59,12.83-8.21,5.99.38,10.11,3.9,11.93,9.53,1.59,4.93,2.54,10.07,3.94,15.76Zm-6.15-.68c-.85-4.68-1-9.77-2.83-14.16-1.22-2.92-4.59-6.32-7.47-6.83-3.83-.68-6.9,2.71-8.04,6.78-2.67,9.48-3.19,19.12.35,28.35,1.09,2.84,5,6.38,7.58,6.36,2.64-.03,6.32-3.57,7.58-6.44,1.84-4.18,1.94-9.13,2.83-14.07Z"/>
  <path class="cls-27" d="m591.1,242.57c3.84-2.06,6.55-3.5,10.04-5.37.2,2.04.44,3.46.46,4.89.12,9.78.16,19.56.3,29.34.06,4.26,1.47,7.67,6.44,7.87,3.48.13,9.57-4.93,9.65-8.22.18-6.98.42-14.01-.22-20.94-.25-2.65-2.84-5.07-4.62-8.01,2.78-1.48,5.59-2.98,9.6-5.12,0,3.64,0,6.31,0,8.99-.01,8.21-.03,16.42-.04,24.63-.01,6.32.03,6.39,7.03,10.06-4.16,1.77-7.31,3.11-10.9,4.64-.5-2.34-.86-3.98-1.39-6.45-1.71,1.24-3.23,2.17-4.54,3.34-6.67,5.94-13.48,4.05-14.94-4.72-1.06-6.32-.76-12.87-1.06-19.31-.26-5.55,1.36-11.65-5.82-15.6Z"/>
  <path class="cls-27" d="m567.82,163.92c-4.2,6.06-7.14,5.07-11.36-3.03-2.37,1.88-4.55,4.05-7.13,5.56-4.34,2.54-8.77.64-10.47-4.12-3-8.4,1.68-16.6,11.84-20.73,5.59-2.27,8.2-12.1,4.11-16.67-1.18-1.31-3.84-2.26-5.5-1.9-1.54.33-3.39,2.46-3.78,4.12-.83,3.5-1.99,5.91-6.07,5.55-1.13-5.76,4.62-13.01,10.97-13.9,6.51-.91,10.17,2.17,10.55,9.79.4,7.84.29,15.72.12,23.57-.11,5.22.6,9.75,6.73,11.77Zm-10.83-20.4c-9.36,1.88-13.49,6.12-12.66,12.43.3,2.27,2.3,4.32,3.53,6.46,2.37-1.51,6.04-2.53,6.82-4.63,1.57-4.21,1.57-9.01,2.31-14.26Z"/>
  <path class="cls-27" d="m493.46,396.14c-.64,1.22-1.02,2.71-1.96,3.6-5.91,5.6-16.18,4.53-20.88-2.05-8.1-11.34-8.03-26.97.19-38.07,2.67-3.61,6.47-6.54,10.67-5.04,3.55,1.27,6.24,4.97,9.28,7.63.23.2.25.64.37.97,4.23,12.21,2.79,14.29-9.96,14.32-11.01.03-12.32,2-8.25,12.45,3.22,8.27,8.7,9.85,20.56,6.19Zm-15.55-21.53c7.1-.13,8.99-1.46,8.43-6.74-.44-4.17-.3-9.62-5.96-10.2-5.6-.57-6.67,4.51-8,8.69-.1.33-.17.67-.24,1.01-1.49,6.54-.83,7.36,5.77,7.24Z"/>
  <path class="cls-27" d="m628.88,159.22c-2.48,8.43-14.24,10.49-20.46,5.52-11.25-8.99-10.86-34.78.14-43.33,4.99-3.87,11.39-4.01,14.48,1.39,2.49,4.36,3.81,9.45,5.19,14.35.93,3.29-.88,4.72-4.34,4.55-4.36-.21-8.73,0-13.09-.08-3.11-.05-4.74,1.33-4.1,4.45.69,3.39,1.29,6.91,2.72,10.01,2.82,6.1,7.66,7.71,13.89,5.25,1.53-.6,3.07-1.17,5.57-2.11Zm-15.91-20.21c8.71-.23,10.93-3.1,8.06-11.48-.78-2.28-3.19-5.25-5.16-5.51-1.89-.24-4.6,2.29-6.17,4.23-1.32,1.63-1.67,4.14-2.19,6.32-1.4,5.86-.72,6.61,5.46,6.45Z"/>
  <path class="cls-27" d="m476.05,132.94c-.83-8.84,9.05-16.64,16.66-13.59,4.33,1.73,5.01,5.59,5.08,9.53.15,7.87,0,15.75.11,23.62.07,4.89,1.4,9.23,7.84,12.14-2.54,1.33-4.61,3.22-5.58,2.77-2.78-1.29-5.11-3.54-7.98-5.68-1.07.9-2.92,2.95-5.19,4.3-5.22,3.1-10.23.92-11.68-4.92-2.15-8.62,1.38-13.46,12.04-19.38,2.12-1.18,5.46-2.83,5.57-4.45.28-4.18-.58-8.57-1.77-12.64-.3-1.03-3.83-2-5.41-1.51-1.56.48-3.32,2.71-3.6,4.41-.59,3.54-2.07,5.36-6.07,5.41Zm16.79,10.84c-8.8,1.74-13.31,6.85-11.74,13.32.47,1.94,2.21,4.8,3.65,4.97,1.9.23,4.79-1.24,6-2.89,3.38-4.62,2.65-10.01,2.09-15.4Z"/>
  <path class="cls-27" d="m743.8,356.22h10.55c.49,4.56.49,8.53,1.42,12.28,1.7,6.87,3.95,13.6,6.72,20.41,4.79-10.2,9.6-20.24,8.76-32.55h6.7c-2.51,6.78-5.17,13.6-7.55,20.52-3.97,11.53-7.78,23.12-11.64,34.68-1.75,5.22-4.97,8.95-10.73,9.34-1.35.09-2.82-1.59-4.23-2.46,1.14-1.51,2.04-4.06,3.44-4.37,10-2.19,14.21-8.78,11.09-18.65-3.41-10.79-7.07-21.51-10.77-32.21-.76-2.2-2.21-4.17-3.75-6.99Z"/>
  <path class="cls-27" d="m687.07,278.25c-.72,1.32-1.15,2.96-2.2,3.89-5.92,5.25-15.76,4.06-20.43-2.31-6.92-9.44-6.54-29.49.74-38.75,5.61-7.14,15.56-6,18.86,2.47,1.49,3.83,2.08,8.1,2.39,12.23.09,1.16-2.16,3.45-3.51,3.59-4.67.48-9.42.36-14.13.24-3.31-.09-4.71,1.43-3.87,4.45,1.05,3.79,1.9,7.87,3.99,11.07,4.54,6.92,10.92,6.06,18.17,3.12Zm-16.42-20.36c9.14-1.42,10.91-2.62,10.69-7.79-.21-5.07-4.23-10.76-7.47-10.58-3.82.2-9.23,8.51-8.35,14.06.27,1.67,3.34,2.89,5.13,4.32Z"/>
  <path class="cls-27" d="m772.61,283.75h-14.06c6.72-12.73,2.27-26.27,3.27-39.33.13-1.63-3.96-3.49-3.98-5.26-.01-1.73,3.29-3.26,4.03-5.29.87-2.36-.11-5.45.89-7.71,1.42-3.21,3.5-6.39,6.09-8.7,1.51-1.36,4.64-1.62,6.9-1.31,5.66.78,6.59,3.85,2.97,8.58-.31-.12-.67-.18-.92-.38-2.15-1.73-4.29-3.48-6.43-5.22-1.18,2.58-2.64,5.07-3.45,7.76-.54,1.77,0,3.84-.2,5.74-.42,3.86.99,5.5,5.03,5.11,1.19-.12,2.5,1.05,3.76,1.63-1.21.64-2.46,1.92-3.61,1.82-4.37-.37-5.36,1.64-5.24,5.59.24,7.69.02,15.4.08,23.1.04,4.95-1.34,10.48,6,12.79-.38.36-.76.71-1.13,1.07Z"/>
  <path class="cls-27" d="m428.35,220.18h15.66c-6.89,4.64-5.65,10.41-5.67,15.81-.05,10.66-.05,21.33.02,31.99.04,5.4-1.35,11.2,5.46,15.86h-16.89c7.09-5.31,5-12.04,5.11-18.18.19-10.49.07-20.98.02-31.47-.02-4.77,1.33-9.99-4.91-12.94.4-.36.81-.72,1.21-1.08Z"/>
  <path class="cls-27" d="m511.15,248c-.88-1.6-1.68-3.25-2.64-4.79-1.8-2.91-4.17-5.37-7.6-2.69-3.22,2.51-5.48,5.98-1.78,9.65,3.33,3.3,6.37,6.92,9.94,9.93,4.72,3.96,6.8,11.59,4.36,18.17-1.95,5.26-6.59,7.83-13.13,7.26-7.14-.62-9.32-4.63-6.61-14.17.53,1.78,1.22,3.52,1.56,5.34.7,3.69,3.48,6.1,6.49,5.57,2.72-.48,5.66-3.06,7.24-5.52.95-1.49.19-5.05-1.06-6.75-2.46-3.33-5.5-6.41-8.84-8.85-4.44-3.24-6.13-7.51-6.21-12.6-.16-10.11,8.5-15.39,17.23-10.4,4.08,2.33,2.37,6.24,1.04,9.86Z"/>
  <path class="cls-27" d="m587.13,280.02c-1.11,4.97-7.2,7.39-10.84,4.21-2.28-2-4.63-5.2-4.86-8.02-.8-9.89-.58-19.85-1.02-29.78-.1-2.2-1.28-4.36-1.97-6.54-.62-.08-1.23-.17-1.85-.25,2.64-3.83,5.28-7.65,8.76-12.69.68,2.33,1.08,2.96.98,3.5-.96,5.58.87,8.29,6.94,7.25.85-.15,1.91.97,2.88,1.5-.97.7-2.07,2.13-2.9,1.99-6.8-1.16-7.34,2.61-7.05,7.92.43,7.83,0,15.71.55,23.53.53,7.62,2.78,9.03,10.37,7.39Z"/>
  <path class="cls-27" d="m665.83,401.48h-12.19c.93-4.78,2.37-9.1,2.49-13.46.34-12.23.35-24.49.03-36.73-.1-3.76-1.66-7.48-2.88-12.64,1.57-.9,4.41-2.51,8.23-4.68.22,2.77.47,4.4.47,6.03,0,15.92-.14,31.83-.03,47.75.03,4.69-1.34,10.03,5.2,12.77-.43.32-.87.64-1.3.95Z"/>
  <path class="cls-27" d="m511.22,123.25c1.13-.68,3.58-2.15,6.57-3.95.46,2.42.76,4.05,1.26,6.7,1.67-1.38,3.16-2.27,4.21-3.53,2.7-3.22,5.82-5.03,9.39-1.87,3.68,3.26.98,6.18-1.17,9-.71-.15-1.28-.14-1.69-.38-1.64-.99-4.28-3.26-4.66-2.92-2.48,2.18-6.03,4.76-6.32,7.52-.83,7.96-.7,16.09-.04,24.08.22,2.6,3.24,4.97,5.28,7.86h-15.51c6.51-2.65,5.08-8.18,5.14-13.07.05-4.55.31-9.12-.06-13.64-.39-4.78-1.41-9.51-2.4-15.81Z"/>
  <path class="cls-22" d="m395.52,512.66c1.96,4.22,5.02,7.58,9.19,5.1,2.77-1.64,4.15-5.62,6.07-8.43-4.86-.4-9.85.61-11.5-1.28-2.69-3.1-4.21-8.05-4.37-12.29-.18-4.72,1.06-9.78,2.87-14.21,3.18-7.78,9.42-8.39,14.95-1.87,1.19-1.14,2.38-2.27,4.84-4.61-.7,6.03-1,10.59-1.79,15.07-1.62,9.26-3.37,18.5-5.31,27.7-1.16,5.47-5.36,7.32-11.34,5.4-4.09-1.32-5.49-4.98-3.6-10.58Zm16.84-21.93c-.26-2.59.02-4.23-.63-5.3-1.42-2.33-3.1-5.81-5.08-6.12-2.01-.31-5.98,2.25-6.53,4.26-1.47,5.38-2.13,11.16-1.92,16.73.08,2.11,3.33,5.62,5.29,5.73,2.09.11,5.26-2.61,6.33-4.87,1.66-3.5,1.93-7.66,2.55-10.44Z"/>
  <path class="cls-27" d="m526.55,398.15c-.75,1.13-1.24,2.64-2.28,3.33-6.12,4.09-16.88,1.69-20.28-4.94-6.21-12.12-5.64-24.38,1.31-36.03,3.52-5.91,11.61-7.69,17.61-4.66,4.79,2.42,5.05,4.42.86,8.78-.84-1.12-1.53-2.31-2.47-3.25-5.08-5.09-9.25-4.68-13.26,1.21-4.13,6.08-2.49,25.71,1.88,31.65,4.51,6.12,9.89,4.51,16.64,3.9Z"/>
  <path class="cls-27" d="m588.71,165.95h-16.89c-.41-.38-.82-.75-1.23-1.13,7.7-1.79,6.45-7.32,6.51-12.23.07-5.24.03-10.47-.04-15.71-.06-4.54.67-9.46-7.09-11.48,4.76-2.51,7.7-4.07,11.1-5.86.48,2.27.84,4.01,1.45,6.88,1.83-1.84,3.14-3.01,4.28-4.32,2.62-2.99,5.7-4.56,9.01-1.53,3.81,3.49,1.21,6.41-1.23,9.11-.7-.13-1.09-.1-1.37-.26-1.75-1.06-4.49-3.46-5.03-3.03-2.83,2.22-6.74,3.75-6.53,8.63.3,7.14.17,14.31.06,21.47-.05,3.32.88,5.74,4.24,6.95.79.28,1.36,1.21,2.76,2.53Z"/>
  <path class="cls-27" d="m540.75,281.77c-1.87,1.22-3.81,3.52-5.59,3.39-2.78-.19-6.25-1.34-7.95-3.34-1.71-2-2.1-5.52-2.21-8.41-.33-8.73-.36-17.49-.26-26.23.04-3.38.07-6.37-4.69-6.69,2.9-4.34,5.45-8.15,8.26-12.35,1.06,3.55,1.14,7.27,3.04,9.11,1.59,1.53,5.32.85,8.1,1.16-.05.73-.1,1.45-.15,2.18-1.92.23-3.84.63-5.77.65-2.73.03-4.31.93-4.26,3.95.16,9.09-.05,18.2.44,27.27.36,6.64,3.66,8.92,9.83,7.84.4.49.8.97,1.2,1.46Z"/>
  <path class="cls-27" d="m654.04,281.82c-1.85,1.21-3.78,3.53-5.52,3.39-2.77-.21-6.37-1.37-7.85-3.4-1.78-2.44-2.19-6.21-2.33-9.43-.34-8.01-.16-16.05-.22-24.07-.03-3.53,1.51-7.97-5.83-7.51,3.68-4.85,6.5-8.56,9.72-12.8.77,3.55.49,7.39,2.26,9.02,1.75,1.62,5.56,1.01,8.47,1.37,0,.67.02,1.35.03,2.02-1.99.28-3.97.79-5.96.78-2.89-.01-4.17,1.17-4.11,4.05.17,9.24-.02,18.5.5,27.73.41,7.25,2.76,8.73,9.63,7.38.4.49.8.99,1.21,1.48Z"/>
  <path class="cls-27" d="m555.65,237.45c3.13,15.76-2.75,31.5,4.03,46.36h-14.4c7.28-5.12,5.25-11.53,5.44-17.38.16-4.71.05-9.43-.05-14.14-.03-1.55-.14-3.19-.65-4.62-.71-1.98-2.95-5.19-2.6-5.48,2.31-1.87,5.15-3.09,8.22-4.74Z"/>
  <path class="cls-22" d="m239.11,499.41c.98,4.57-.52,8.01-4.49,9.73-3.99,1.73-7.1.49-9.91-3.18-6.42-8.38-1.69-22.51,3.41-28.53,3.33-3.93,9.73-3.1,11.81,1.64,1.42,3.23,1.8,7.04,1.95,10.62.04,1.06-2.16,2.88-3.59,3.19-2.5.55-5.27-.14-7.8.36-1.83.36-5.04,2.14-4.92,2.68.75,3.36,1.85,6.84,3.81,9.58.53.74,4.68-.5,6.72-1.63,1.4-.77,2.04-2.92,3.02-4.46Zm-13.83-10.15c3.96,0,6.39.26,8.73-.08,1.84-.27,3.58-1.26,5.36-1.94-1.05-2.61-1.55-5.78-3.39-7.59-.96-.95-5-.27-6.36,1.02-1.89,1.79-2.57,4.86-4.34,8.58Z"/>
  <path class="cls-22" d="m556.35,485.87c-.55-6.76,1.92-10.01,6.69-10.52,5.29-.56,8.66,1.91,8.76,7.23.08,4.16-.96,8.33-1.16,12.51-.22,4.67-.05,9.35-.05,12.99-2.92.44-5.82.55-8.5,1.37-3.94,1.2-6.48-.03-8.14-3.56-3.56-7.55.55-14.96,8.68-16.34,2.3-.39,5.5-1.64,6.23-3.36.72-1.7-.58-5.83-2.06-6.49-1.97-.87-5.11.27-7.47,1.21-1.09.43-1.55,2.45-2.98,4.96Zm12.59,6.71c-4.27.71-7.44.44-9.5,1.82-1.91,1.27-3.36,4.24-3.61,6.61-.16,1.59,2.29,4.97,3.29,4.87,2.41-.26,5.41-1.55,6.75-3.43,1.66-2.34,1.87-5.7,3.08-9.87Z"/>
  <path class="cls-22" d="m316.74,478.52c4.79-2.12,8.52-5.53,12.2-.84.82,1.05,2.13,2.34,2.02,3.4-.97,9.14-2.21,18.25-3.38,27.37-.76-.05-1.52-.1-2.27-.16,0-1.54-.16-3.1.03-4.62.7-5.73,1.61-11.43,2.23-17.16.31-2.9.87-7.07-3.01-7.11-2.57-.03-6.51,2.58-7.48,4.96-1.87,4.58-2.11,9.83-2.97,14.81-.53,3.1-.96,6.22-1.44,9.34l-1.67-.17c-.11-1.24-.44-2.51-.29-3.72,1.59-12.3,3.23-24.6,4.97-36.89.2-1.41,1.08-2.74,1.78-4.05.04-.08,1.76.48,1.74.66-.12,1.3-.52,2.57-.75,3.87-.53,3.04-1.01,6.08-1.71,10.29Z"/>
  <path class="cls-22" d="m428.27,462.8c-.66,5.67-1.17,10.08-1.77,15.32,1.58-.92,2.48-1.5,3.43-1.98,4.28-2.16,9.16-.57,9.18,4.02.04,8.98-1.31,17.98-2.24,26.95-.06.54-1.5.94-2.3,1.41-.33-1.05-1.09-2.17-.92-3.13.99-5.61,2.21-11.18,3.32-16.78.24-1.19.78-2.61.38-3.59-.82-2.02-1.85-4.89-3.43-5.4-1.66-.53-5.22.74-5.94,2.22-2.19,4.43-3.7,9.27-4.9,14.1-1.01,4.05-1.22,8.3-2.26,12.37-2.36-5.14,3.26-41.77,7.46-45.49Z"/>
  <path class="cls-22" d="m617.77,489.84c.31,6.48-2.11,11.95-5.95,16.87-4.13,5.3-10.91,4.79-13.43-1.4-3.78-9.31-2.65-18.62,3.01-26.83,1.4-2.02,5.76-3.74,7.96-3.05,2.84.89,5.39,4.03,7.08,6.8,1.25,2.04.94,5.04,1.32,7.62Zm-3.17-.18l-.69-.22c-.11-1.39.2-3.02-.43-4.11-1.38-2.36-3.21-6.2-4.9-6.22-2.4-.03-6.4,2.43-6.95,4.53-1.44,5.58-1.83,11.55-1.68,17.34.05,1.85,2.89,4.82,4.78,5.1,1.84.27,5.08-1.78,5.96-3.63,1.9-3.98,2.67-8.5,3.91-12.79Z"/>
  <path class="cls-22" d="m368.21,491.07c-.95,3.68-1.8,8.5-3.48,13.02-1.52,4.1-5.22,6.49-9.51,5.84-4.15-.63-7.34-3.53-7.86-8.03-.95-8.18-1.45-16.3,4.68-23.2,2.42-2.73,5.18-4.95,8.52-3.35,2.5,1.2,4.77,3.81,6.07,6.33,1.2,2.34.99,5.42,1.58,9.39Zm-2.6-.73c-.65-3.1-.81-5.98-1.89-8.46-1.71-3.94-6.53-4.8-8.97-1.37-3.75,5.27-6.58,11.38-5.04,17.95.69,2.95,3.43,6.49,6.09,7.49,1.56.58,5.62-2.85,7.07-5.35,1.75-3.01,1.92-6.93,2.74-10.27Z"/>
  <path class="cls-22" d="m509.91,494.85c1.56-5.1,2.84-10.32,4.79-15.26,1.42-3.59,4.95-5.59,8.52-4.34,2.54.89,4.98,3.52,6.37,5.98,4.55,8.07,1.2,15.76-2.11,23.24-1.58,3.56-4.24,6.05-8.54,5.6-4.57-.48-6.45-3.79-7.4-7.72-.57-2.35-.66-4.81-.97-7.23-.22-.1-.44-.19-.66-.29Zm2.8-.55c.21.08.41.16.62.24.16,1.91-.2,4.08.62,5.65,1.17,2.26,3.13,5.61,4.88,5.69,2.21.1,6.11-2.25,6.55-4.18,1.37-5.95,1.8-12.2,1.78-18.33,0-1.58-2.88-4.23-4.67-4.44-1.84-.22-4.93,1.45-5.78,3.14-1.89,3.79-2.73,8.11-4,12.22Z"/>
  <path class="cls-22" d="m157.55,476.63c-.76,6.13-1.52,12.25-2.3,18.38-.2,1.56-.91,3.23-.57,4.65.53,2.18,1.77,4.18,2.71,6.26,2.37-1.08,6.06-1.57,6.86-3.35,1.95-4.37,2.67-9.32,3.69-14.07.58-2.73.61-5.58,1.21-8.31.29-1.35,1.3-2.54,1.99-3.8.68.22,1.37.44,2.05.66-1.82,10.3-3.64,20.59-5.35,30.31-2.18.48-4.06.59-5.66,1.31-5.13,2.31-8.8.88-9.67-4.7-.55-3.53.03-7.29.45-10.91.65-5.63,1.59-11.23,2.41-16.84.73.13,1.45.26,2.18.39Z"/>
  <path class="cls-22" d="m619.51,508.16c1.41-10.48,2.82-20.97,4.1-30.47,3.32-.86,5.63-1.32,7.85-2.05,4.54-1.49,8.39.76,8.75,6.09.3,4.47-.54,9.03-.99,13.54-.33,3.31-.67,6.63-1.36,9.87-.27,1.27-1.48,2.33-2.27,3.49-.42-1.31-1.37-2.71-1.17-3.91.93-5.64,2.27-11.22,3.28-16.85.58-3.23,1.51-6.84-2.86-8.4-4.54-1.61-6.77,1.42-7.78,4.89-1.79,6.12-2.93,12.43-4.35,18.66-.42,1.85-.87,3.69-1.3,5.53-.63-.13-1.26-.25-1.89-.38Z"/>
  <path class="cls-22" d="m478.47,508.22c.1-1.74.1-3.48.31-5.21.72-6.07,1.78-12.13,2.12-18.22.1-1.82-1.66-5.26-2.69-5.31-2.23-.1-5.52.87-6.6,2.55-1.81,2.81-2.36,6.47-3.19,9.84-1.37,5.5-2.53,11.06-4.83,16.63-.24-.98-.79-2.01-.67-2.95,1.03-8.15,2.1-16.3,3.36-24.42.35-2.25.68-5.3,4.53-3.41.39.19,1.22-.44,1.82-.73,6.74-3.31,10.92-1.34,10.71,6-.24,8.5-1.73,16.96-2.68,25.43-.72-.07-1.45-.14-2.17-.21Z"/>
  <path class="cls-22" d="m217.88,487.41c-.85-1.73-1.08-2.75-1.71-3.38-1.81-1.83-3.76-4.84-5.69-4.87-2.04-.03-5.02,2.42-6.01,4.53-2.67,5.68-5.51,11.31-1.78,18.17,3.33,6.14,7.86,5.49,11.91-.22.75-1.06,1.24-2.3,2.04-3.8,1.8,4.79-.55,9.34-5.31,11.28-4.43,1.81-9.32-.08-11.38-4.39-3.77-7.89-1.34-21.18,4.96-27.27,3.13-3.03,6.88-3.17,10.05-.86,3.06,2.23,4.77,5.66,2.93,10.81Z"/>
  <path class="cls-22" d="m194.66,486.57c-.67-.54-1.07-.7-1.18-.97-1.39-3.49-3.15-7.37-7.45-6.62-4.14.71-6.95,4.16-7.4,8.51-.47,4.46-.86,9.11-.07,13.45.37,2.02,3.39,4.42,5.61,4.95,1.52.36,3.89-2.05,5.61-3.54,1.4-1.22,2.39-2.9,4.16-5.14.52,6.37-3.43,11.78-8.17,12.69-4.82.93-8.79-2.01-10.03-7.77-1.64-7.59-.96-15.01,2.76-21.91,2.32-4.3,6.98-5.95,11.15-4.36,4.44,1.7,6.24,5.32,5,10.71Z"/>
  <path class="cls-22" d="m491.09,477.86c2.58-.76,4.14-.98,5.47-1.65,4.6-2.31,9.51-.76,9.56,4.18.09,9.37-1.25,18.75-2,28.12-.74-.03-1.48-.05-2.23-.08-.08-1.2-.34-2.42-.19-3.59.78-6.07,1.71-12.13,2.49-18.2.38-2.98.87-6.4-2.94-7.43-3.81-1.02-6.78,1.07-7.66,4.66-1.5,6.09-2.34,12.34-3.42,18.53-.21,1.2-.04,2.53-.49,3.62-.4.95-1.43,1.65-2.18,2.45-.48-.97-1.47-2.01-1.34-2.9.56-3.95,1.49-7.85,2.19-11.79,1.01-5.66,1.95-11.34,2.74-15.95Z"/>
  <path class="cls-22" d="m146.4,484.59c-.59-1.16-.9-2.69-1.83-3.38-1.52-1.14-3.59-2.59-5.17-2.33-1.61.26-3.75,2.24-4.1,3.81-.37,1.62.71,4.05,1.94,5.42,1.45,1.61,3.92,2.25,5.66,3.66,4.41,3.55,5.41,9.34,2.67,14.15-2.26,3.96-6.39,5.44-10.28,3.66-3.76-1.72-5.52-5.91-4-11.19.9,1.99,1.18,3.64,2.15,4.51,1.67,1.5,3.71,3.28,5.74,3.48,1.43.14,4.02-1.91,4.42-3.43.54-2.04-.05-4.76-1.08-6.7-.79-1.48-2.96-2.3-4.62-3.23-4.85-2.71-6.76-7.7-4.86-12.93,1.62-4.47,5.06-5.52,9.26-4.75,3.71.68,5.38,3.83,4.09,9.25Z"/>
  <path class="cls-22" d="m377.3,476.74c-.76,6.12-1.52,12.25-2.29,18.37-.2,1.56-.89,3.23-.53,4.64.55,2.16,1.94,5.9,2.76,5.85,2.43-.16,6.1-1.28,6.87-3.07,1.96-4.56,2.72-9.65,3.73-14.58.77-3.78,1.18-7.64,1.75-11.47.72.1,1.43.19,2.15.29-1.34,10.42-2.67,20.84-3.94,30.72-2.27.3-3.86.55-5.46.71-2.44.25-5.95,1.53-7.11.42-2.17-2.09-4.3-5.68-4.12-8.49.47-7.24,2.2-14.41,3.49-21.59.14-.76.72-1.43,1.1-2.15.54.12,1.07.24,1.61.36Z"/>
  <path class="cls-22" d="m262.03,484.97c-.67-1.18-.95-2.24-1.64-2.77-1.79-1.37-3.68-3.26-5.68-3.46-1.28-.12-4,2.43-3.97,3.73.06,2.25,1.42,4.72,2.87,6.59,1.09,1.4,3.36,1.81,4.81,3.01,4.31,3.57,5.16,9.48,2.2,14.18-2.4,3.81-5.86,4.9-9.98,3.34-3.77-1.43-5.54-5.88-4.1-10.96.82,1.69,1.1,3.13,1.98,3.89,1.83,1.57,3.89,3.63,6.02,3.85,1.46.15,4.4-2.37,4.54-3.9.22-2.36-.97-5.16-2.35-7.25-.93-1.4-3.36-1.72-4.89-2.84-3.97-2.9-5.14-7.98-3.22-12.73,1.59-3.92,4.64-5.01,8.5-4.4,4.22.66,6.39,4.68,4.9,9.73Z"/>
  <path class="cls-22" d="m267.69,498.03c.91,2.1,1.1,3.5,1.91,4.19,1.93,1.65,4.07,3.88,6.29,4.08,1.47.13,4.46-2.79,4.54-4.45.11-2.32-1.48-5.04-3.06-7.02-1.32-1.65-3.93-2.21-5.52-3.73-3.4-3.25-3.9-8.52-1.49-12.53,1.98-3.29,4.95-4.4,8.53-3.22,4.27,1.4,5.59,4.65,4.29,9.28-.74-1.21-1.4-2.48-2.24-3.63-1.9-2.6-4.45-3.67-7.2-1.65-2.79,2.04-3.31,5.01-1.05,7.77,1.15,1.4,2.94,2.36,4.58,3.25,5.58,3.02,7.8,9.07,5.26,14.67-1.92,4.23-6.26,6.21-10.35,4.73-3.95-1.43-5.95-5.82-4.47-11.73Z"/>
  <path class="cls-22" d="m553.29,476.71c-1.03,2.39-2.24,4.72-3.06,7.18-2.33,6.96-4.43,14-6.81,20.94-.53,1.55-1.82,2.83-2.76,4.24l-1.84-.38c-1.37-10.51-2.74-21.02-4.11-31.53.76-.13,1.51-.26,2.27-.4,1.05,7.91,2.09,15.82,3.14,23.73l1.55.2c4.57-7.67,4.41-17.55,9.64-24.91.66.31,1.32.62,1.98.93Z"/>
  <path class="cls-22" d="m578.34,477.16c.8-2.01,1.62-4.14,2.49-6.24.5-1.22,1.03-2.43,1.71-3.55.09-.14,1.73.38,1.72.52-.12,1.3-.41,2.59-.7,3.87-.11.49-.38.94-.71,1.71,1.34,1.19,2.7,2.39,4.08,3.62-9.25,7.04-5.46,17.54-7.45,26.43-.13.6.76,1.43,1.18,2.16.53.93,1.07,1.86,1.6,2.8-.7.4-1.66,1.31-2.07,1.11-1.15-.56-2.58-1.4-2.96-2.46-.56-1.56-.54-3.43-.37-5.13.55-5.38,1.44-10.72,1.88-16.11.22-2.75-.24-5.57-.41-8.72Z"/>
  <path class="cls-22" d="m311.01,477.47c-5.82,1.46-5.9,5.5-6.27,9.55-.41,4.52-1.39,9-1.66,13.53-.11,1.8,1.04,3.66,1.59,5.51.29.98.54,1.98.8,2.96-1.25-.07-3.36.24-3.59-.28-.87-1.97-1.68-4.25-1.53-6.34.39-5.4,1.47-10.75,1.93-16.14.24-2.92-.24-5.89-.41-9.27,1.17-2.86,2.58-6.31,4.38-10.68,1.74,4.19-2.14,9.69,4.76,11.17Z"/>
  <path class="cls-22" d="m333.74,508c1.29-10.24,2.58-20.49,3.84-30.54,2.41-.62,4.3-1.21,6.24-1.57.88-.16,1.84.14,2.77.23-.33,1.02-.34,2.59-1.02,2.98-5.99,3.37-6.61,9.35-7.55,15.12-.77,4.71-1.23,9.46-1.82,14.2-.82-.14-1.63-.28-2.45-.42Z"/>
  <path class="cls-22" d="m453.42,508.09c1.94-10.59,3.87-21.18,5.81-31.76.7.08,1.4.17,2.1.25-1.29,9.92-2.57,19.84-3.9,29.76-.18,1.35-.63,2.67-.95,4.01-1.02-.75-2.04-1.51-3.06-2.26Z"/>
  <path class="cls-22" d="m593.32,477.02c-1.37,10.43-2.73,20.87-4.1,31.3-.76-.09-1.52-.17-2.28-.26,1.32-10.44,2.65-20.88,3.97-31.32.8.09,1.6.19,2.41.28Z"/>
  <path class="cls-27" d="m558.29,224.92c-2.43,2.49-3.95,4.05-5.47,5.61-1.32-1.56-3.7-3.12-3.69-4.66.01-1.91,2.01-3.8,3.15-5.7,1.68,1.33,3.36,2.66,6,4.76Z"/>
  <g id="layer1">
    <path id="path3002" class="cls-16" d="m490.96,232.1l-13.07-2.01c-3.28-13.36-17.66-24.5-34.2-35.2l4.02-5.03c17.7,7.24,35.77,14.3,48.28,24.14l-5.03,18.1Z"/>
    <path id="path2998" class="cls-6" d="m517.87,159.57l-23.93-13.89-16.05-9.12-8.05,9.05,47.27,25.14.76-11.19Z"/>
    <path id="path3004" class="cls-12" d="m486.94,286.41l-55.32,11.06-20.11-49.28c-3.46-14.88,10.28-15.78,15.09-10.06-10.03-14.69,9.36-19.84,13.07-6.03-10.94-11.31-1.52-34.65,18.1,0-33.39-59.96,12.39-23.19,20.11,0l9.05,54.31Z"/>
    <path id="path3000" class="cls-14" d="m517.11,170.75c-55.28-26.5-95.92-60.99-121.69-103.59-27.88,32.94-48.2,66.96-57.33,102.59,59.68,1.05,113.63,14.72,159.91,45.26l19.11-44.25Z"/>
    <path id="path3239" class="cls-9" d="m538.27,203l8.53,8.53-7.82,14.22-12.09-3.56,11.38-19.2Z"/>
    <path id="path2996" class="cls-10" d="m549.3,192.88l-30.42-34.32-32.48,73.54,39.76,2.01,23.13-41.24Z"/>
    <path id="path3010" class="cls-13" d="m603.61,332.68l-25.14,39.22,26.15-2.01-1.01-37.21Z"/>
    <path id="path3012" class="cls-13" d="m589.53,355.81l-18.1,38.22,47.27,5.03-9.05-45.26-20.11,2.01Z"/>
    <path id="path3018" class="cls-8" d="m591.54,371.9l-9.05,43.25-14.08-3.02,15.09-39.22,8.05-1.01Z"/>
    <path id="path3006" class="cls-5" d="m490.79,283.98c-18.77-2.14-43.95-1.32-62.72,17.34,8.83,55.6,20.53,108.68,39.76,159.08,7.24,21.95,15.45,42.74,37.21,47.27,42.72,12.45,183.13,6.92,275.65,6.92,7.33-30.51,7.67-67.94-1.09-98.45-10.28-32.63-24.04-61.79-50.29-78.45v-1.01c-40.29-3.93-90.1,12.17-127.73,32.18l-1.01,7.04c-9.83,2.96-15.96,7.78-15.09,16.09-15.21,1.7-31.2,2.96-28.16,15.09-3.91-4.86-5.06-11.79-19.11-9.05-8.73-3.97-16.07-12.12-22.13-24.14,1.55-13.78,3.46-27.84-8.05-31.18l-17.27-58.75Z"/>
    <path id="path3016" class="cls-3" d="m601.59,359.83l-8.05,11.06h-9.05s1.88-12.61,4.56-18.4c3.29-7.1,14.25-16.8,14.25-16.8l-1.72,24.14Z"/>
    <path id="path3020" class="cls-11" d="m676.02,148.63l-17.1-4.02s32.18-8.05,25.14-7.04c-7.04,1.01-13.07-3.02-13.07-3.02l20.11-3.02-4.02-7.04h13.07l-3.02-4.02,23.13,9.05,17.69,1.84c3.69,5.52,12.76,6.27,16.45,17.12,8.45,1.14,15.1,9.8,26.21,16.25-5.85,12.15,1.71,18.29,11.65,22.54-.15,13.97,5.27,23.73,6.52,33.92,1.18,9.61-1.78,19.69-2.45,31.25-19.11,51.16-64.78,49.37-74.06,65.16l-20.11,3.02-34.2-81.46,8.05-90.52Z"/>
    <path id="path3022" class="cls-13" d="m611.65,229.08l-12.07-4.02,5.03-13.07,17.1,11.06-10.06,6.03Z"/>
    <path id="path3026" class="cls-25" d="m593.33,249.37c-2.75,2.07.63,7.28,7.54,11.65,6.91,4.37,14.74,6.24,17.48,4.17s-.63-7.28-7.54-11.65c-6.91-4.37-14.74-6.24-17.48-4.17Z"/>
    <path id="path3024" class="cls-13" d="m602.48,254.55l-11.99-4.26-4.09,13.4,20.28,1.81-4.21-10.95Z"/>
    <path id="path3014" class="cls-12" d="m610.65,328.65c2.61-24.64,5.15-38.72-18.1-33.19-12.51-1.16-12.71-15.25-8.05-29.17l2.01-11.06c12.54,6.17,19.57-5.03,24.14-20.11,6.47-9.82-14.44-15.76-13.07-18.1,1.68-5.45,5.27-8.05,7.04-12.07-13.89-13.83,7.32-18.79,33.09-20.7l7.26-11.72c-.64-11.28,5.72-7.53,9.94-12.83,0-9.65,15.37-10.09,28.16-12.07,44.71,11.3-15.73,57.91-10.06,86.49,49.94-17.76,50.1,10.09,24.48,35.2-11.91,16.8-12.68,33.35,14.74,48.28l-101.58,11.06Z"/>
    <path id="path3174" class="cls-19" d="m751.62,362.66c-18.1-8.44-40.93-9.8-63.32-9.8-31.67,0-66.8,17.97-89.6,17.97-3.39,0,30.39-24.17,57.75-31.54,41.13-11.08,76.27-10.24,95.17,23.37Z"/>
    <path id="path3446" class="cls-26" d="m726.31,339.33c53.24,24.99,67.59,130.01,53.82,167.98l-30.07-17.03,5.09-19.97-9.62-14.68,7.92-17.03-14.71,7.05v-38.76l-22.63-36.41,5.66-19.38-32.24-8.22,36.77-3.52Z"/>
    <path id="path3008" class="cls-7" d="m728.32,337.7c-49.68,2.13-91.45,15.32-127.73,36.21l3.02-41.24c40.98-17.81,80.38-21.39,118.68-15.09l6.03,20.11Z"/>
    <path id="path3130" class="cls-15" d="m644.95,172.42h4.27c4.71,0,8.99,1.65,12.8,3.56,1.21.61,2.22,1.51,2.84,2.13.33.33,1.7-.21,2.13,0,.56.28,2.44,3.15.71,1.42"/>
    <path id="path3132" class="cls-15" d="m605.83,206.55c-6.53-4.4,3.18-3.03,7.11-3.56,4.78-.64,2.9,5.69-2.13,5.69"/>
    <path id="path3142" class="cls-15" d="m657.75,183.08c-6.28-5.56-12.74-6.4-14.93-6.4"/>
    <path id="path3146" class="cls-15" d="m641.39,178.82c1.53,2.79,3.54,5.68,6.4,7.11"/>
    <path id="path3152" class="cls-15" d="m690.46,230.02c3.14.89,7.17.26,10.67,1.42,14,4.67,19.74,21.06,4.98,28.45-3.32,1.66-13.13-2.52-15.65,0-3.04,3.04-9.97,13.5-16.36,7.11-1.47-1.47-2.84-.69-2.84-4.27"/>
    <path id="path3154" class="cls-15" d="m691.88,237.13c2.92-.47,13.44,7.18,9.25,11.38-2,2-23.73,8.72-24.89,6.4-3.68-7.36,10.03-5.77,7.11-2.84-2.92,2.92-8.74-.71-2.13-.71"/>
    <path id="path3156" class="cls-19" d="m691.88,385.76c6.88,17.81-9.44,34.16-19.2,47.35-14.99,11.77-30.33,23.11-43.11,37.4-12.22,9.06-15.63,30.07-22.48,40.77.53-17.78,3.15-44.65,20.65-54.42,11.25-10.93,23.26-20.7,37.61-27.05,14.15-11.33,14.04-31.62,26.53-44.05h0Z"/>
    <path id="path3165" class="cls-19" d="m708.95,394.3c9.28,25.38-27.88,119.63-8.53,51.91,5.09-17.82-.67-36.57,8.53-51.91Z"/>
    <path id="path3167" class="cls-19" d="m695.44,424.88c-.11,10.79-3.71,21.56-10.06,30.28-8.08,10.11-21.22,18.44-32.04,24.9-12.81,11.79-20.72,17.57-33.4,27.58,24.78-28.35,58.73-53.95,75.5-82.75h0Z"/>
    <path id="path3170" class="cls-19" d="m767.27,418.48c-13.39,19.86-24.73,41.27-39.11,60.45-67.2,89.6,16.76-50.29,39.11-60.45Z"/>
    <path id="path3208" class="cls-19" d="m627.17,439.1c-17.49,7.55-36.06,14.14-54.05,21.34-5.07,2.03-82.33,19.75-101.7,5.69,12.47,26.29,17.24,36.9,42.67,41.96,50.44,9.4,93.58-36.49,113.08-68.98h0Z"/>
    <path id="path3210" class="cls-4" d="m663.44,269.84c-1.81,25.2-39.83,26.54-65.43,24.18"/>
    <path id="path3215" class="cls-19" d="m556.05,408.52c5.67-6.21-24.61,31.29-19.91,31.29.12,0-3.25-31.6.71-35.56,8.08-8.08,12.5-3.28,19.2,4.27h0Z"/>
    <path id="path3217" class="cls-19" d="m512.67,347.36c-32.18-17.75-25.39,83.71-15.65,73.96,1.59-1.59-2.13-27.71-2.13-32.71,0-24.5,13.74-25.09,17.78-41.25Z"/>
    <path id="path3219" class="cls-2" d="m501.29,318.2c-26.68-.23-50.08,3.36-65.43,16.36"/>
    <path id="path3263" class="cls-23" d="m462.18,143.26c-26.47-18.75-53.35-36.8-76.09-61.72l9.42-10.48c15.8,27.89,41.5,49.89,66.67,72.19h0Z"/>
    <path id="path3265" class="cls-29" d="m438.14,183.59c-30.35-11.45-60.35-23.63-93.73-28.54l-3.41,13.67c31.95-2.51,64.56,6.48,97.14,14.87h0Z"/>
    <path id="path3312" class="cls-17" d="m365.96,58.39C357.92,48.09,313.66.34,313.66.34"/>
    <path id="path3314" class="cls-15" d="m339.81,78.79l-72.41-54.31"/>
    <path id="path3316" class="cls-15" d="m315.68,131.09l-92.53-28.16"/>
    <path id="path3318" class="cls-15" d="m307.63,155.23c-8.05-4.02-84.48-8.05-84.48-8.05"/>
    <path id="path3320" class="cls-15" d="m325.73,104.94c-8.05-4.02-96.55-50.29-96.55-50.29"/>
    <path id="path3434" class="cls-26" d="m611.9,459.66c-8.78,5.87-32.36,20.33-41.83,25.34-11.95,6.32-63.08,20.72-72.8,15.74,6.26,12.03,24.52,8.69,37.29,8.37,25.33-.97,67.55-30.58,77.34-49.45h0Z"/>
    <path id="path3436" class="cls-26" d="m683.49,408.67c3.73,13.9-9.78,26.64-18.14,36.93-12.15,9.18-24.54,18.03-35.25,29.18-9.87,7.07-14.09,23.46-20.07,31.8,1.81-13.87,5.91-34.83,19.79-42.45,9.29-8.53,19.06-16.15,30.3-21.1,11.49-8.84,13.02-24.66,23.36-34.36h0Z"/>
    <path id="path3438" class="cls-26" d="m772.55,417.89c-10.84,16.24-20.01,33.75-31.66,49.44-54.38,73.27,13.56-41.13,31.66-49.44Z"/>
    <path id="path3442" class="cls-24" d="m554.54,409.8c4-4.56-17.98,22.97-15.43,22.97.07,0,2.9-23.19,5.64-26.1,5.58-5.93,7.27-2.4,9.79,3.13Z"/>
    <path id="path3444" class="cls-26" d="m508.56,355.85c-19.43-15.03-15.34,70.89-9.45,62.64.96-1.34-1.29-23.47-1.29-27.7,0-20.75,8.3-21.25,10.74-34.93Z"/>
  </g>
</svg>